<?xml version="1.0" encoding="UTF-8"?>
<!-- Generated by Pixelmator Pro 3.5.11 -->
<svg width="2800" height="600" viewBox="0 0 2800 600" xmlns="http://www.w3.org/2000/svg">
    <g id="MIDILOGO">
        <path id="Path" fill="#000000" stroke="none" d="M 19 36.901672 L 480.418549 36.901672 C 519.233154 36.901672 541.80896 70.369385 541.80896 110.174164 L 541.80896 563.671326 L 413.087067 563.671326 L 413.087067 169.584259 L 337.834259 169.584259 L 337.834259 563.671326 L 220.994385 563.671326 L 220.994385 169.584259 L 147.721909 169.584259 L 147.721909 563.671326 L 19 563.671326 L 19 36.901672 Z"/>
        <path id="path1" fill="#000000" stroke="none" d="M 605.179749 36.901672 L 733.901672 36.901672 L 733.901672 563.671326 L 605.179749 563.671326 Z"/>
        <path id="path2" fill="#000000" stroke="none" d="M 795.292114 36.901672 L 1177.497192 36.901672 C 1216.311768 36.901672 1238.887695 70.369385 1238.887695 110.174164 L 1238.887695 498.320221 C 1238.887695 547.630615 1218.292114 563.671326 1173.536499 563.671326 L 795.292114 563.671326 L 795.292114 228.994385 L 925.994385 228.994385 L 925.994385 434.949432 L 1110.165771 434.949432 L 1110.165771 155.721924 L 795.292114 155.721924 L 795.292114 36.901672 Z"/>
        <path id="path3" fill="#000000" stroke="none" d="M 1298.297729 36.901672 L 1429 36.901672 L 1429 563.671326 L 1298.297729 563.671326 Z"/>
    </g>
    <g id="g1">
        <g id="1">
            <g id="g2">
                <path id="polygon7" fill="#000000" stroke="none" d="M 1842.007446 151.38916 L 1731.81604 151.38916 L 1731.81604 564 L 1605.120239 564 L 1605.120239 151.38916 L 1477.939087 151.38916 L 1477.696289 38.285278 L 1877.928711 38.285278 Z"/>
                <path id="polygon13" fill="#000000" stroke="none" d="M 2490.049316 281.725677 L 2614.074951 160.369537 L 2763.585938 160.369537 L 2606.551025 312.792816 L 2781.303711 564 L 2643.200684 564 L 2525.970459 389.489899 L 2490.049316 425.411316 L 2490.049316 564 L 2364.566895 564 L 2363.353516 36.828979 L 2490.049316 36.828979 Z"/>
                <path id="path16" fill="#25f4ee" stroke="none" d="M 1861.90979 349.442383 C 1861.94873 237.468842 1948.088257 144.352905 2059.720215 135.612885 C 2054.137939 135.612885 2046.613892 135.612885 2041.031616 135.612885 C 1927.580322 142.230438 1838.967529 236.162506 1838.967529 349.806458 C 1838.967529 463.450378 1927.580322 557.382446 2041.031616 564 C 2046.613892 564 2054.137939 564 2059.720215 564 C 1947.808838 555.238647 1861.567383 461.695709 1861.90979 349.442383 Z"/>
                <path id="path18" fill="#fe2c55" stroke="none" d="M 2108.505615 134.884766 C 2102.68042 134.884766 2095.15625 134.884766 2089.573975 134.884766 C 2200.844482 144.075226 2286.470215 237.06488 2286.470215 348.714233 C 2286.470215 460.363617 2200.844482 553.353271 2089.573975 562.543762 C 2095.15625 562.543762 2102.68042 562.543762 2108.505615 562.543762 C 2227.002441 562.543762 2323.062988 466.482971 2323.062988 347.986084 C 2323.062988 229.489227 2227.002441 133.428467 2108.505615 133.428467 Z"/>
                <path id="path4" fill="#000000" stroke="none" d="M 2074.525879 453.808655 C 2016.885864 453.808655 1970.159424 407.082275 1970.159424 349.442383 C 1970.159424 291.80249 2016.885864 245.076111 2074.525879 245.076111 C 2132.165771 245.076111 2178.89209 291.80249 2178.89209 349.442383 C 2178.758545 407.026917 2132.110352 453.675171 2074.525879 453.808655 Z M 2074.525879 134.884766 C 1956.028809 134.884766 1859.968018 230.945465 1859.968018 349.442383 C 1859.968018 467.939301 1956.028809 564 2074.525879 564 C 2193.022705 564 2289.083252 467.939301 2289.083252 349.442383 C 2289.083252 292.538147 2266.478271 237.9646 2226.240967 197.727264 C 2186.003662 157.489899 2131.429932 134.884766 2074.525879 134.884766 Z"/>
            </g>
        </g>
    </g>
</svg>
